<svg xmlns="http://www.w3.org/2000/svg" version="1.1" xmlns:xlink="http://www.w3.org/1999/xlink" xmlns:svgjs="http://svgjs.dev/svgjs" width="1500" height="1500" viewBox="0 0 1500 1500"><rect width="1500" height="1500" fill="#000000"></rect><g transform="matrix(0.6666666666666666,0,0,0.6666666666666666,249.39393939393938,537.9150863856346)"><svg viewBox="0 0 396 168" data-background-color="#010536" preserveAspectRatio="xMidYMid meet" height="636" width="1500" xmlns="http://www.w3.org/2000/svg" xmlns:xlink="http://www.w3.org/1999/xlink"><g id="tight-bounds" transform="matrix(1,0,0,1,0.2400000000000091,0.033645017012730705)"><svg viewBox="0 0 395.52 167.93270996597454" height="167.93270996597454" width="395.52"><g><svg viewBox="0 0 660.1223919444999 280.27948571111716" height="167.93270996597454" width="395.52"><g transform="matrix(1,0,0,1,264.60239194449986,27.7430821575973)"><svg viewBox="0 0 395.52000000000004 224.79332139592256" height="224.79332139592256" width="395.52000000000004"><g id="textblocktransform"><svg viewBox="0 0 395.52000000000004 224.79332139592256" height="224.79332139592256" width="395.52000000000004" id="textblock"><g><svg viewBox="0 0 395.52000000000004 184.1844326141776" height="184.1844326141776" width="395.52000000000004"><g transform="matrix(1,0,0,1,0,0)"><svg width="395.52000000000004" viewBox="92.67 -28.8 179.18 70.35" height="184.1844326141776" data-palette-color="#fbfbf8"><svg></svg><svg></svg><g class="wordmark-text-0" data-fill-palette-color="primary" id="text-0"><path transform="translate(88.67,0)" d="M4-3.4v-21.9l5.85-3.45h10.35v5.65h-9.7v17.25h9.5v5.85h-10.15zM38.65-9.3h-6.5v3.45h-9.5v5.85h10.15l5.85-3.4zM32.15-19.6h6.5v-5.7l-5.85-3.45h-10.35v5.65h9.7zM43.55-6.35v-15.55h6.3v15h7.5v4h-8.05zM43.55 2.25h6.3v2.3h7.5v5.2h-8.05l-5.75-3.45zM67.15-21.9h6.3v28.2l-6.3 3.45h-7.5v-5.2h7.5v-7.45h-7.5v-4h7.5zM82.95 0v-28.8h6.3v6.9h7.5v4.65h-7.5v12h7.3v5.25zM112.75-3.45v-15l-5.7-3.45h-8.1v4.65h7.7v12h-7.5v5.25h7.9zM150.95-18.55v5.7l-5.9 3.45h-8v-3.85h7.55v-4.1h-7.55v-4.7h8zM144.4-6.95h6.55v3.5l-5.9 3.45h-8v-5.3h7.35zM120.75-18.55v15.1l5.9 3.45h7.95v-5.3h-7.55v-4.1h7.55v-3.85h-7.55v-4.1h7.55v-4.7h-7.95zM159.95 0v-21.85h6.25v2.15l7.5-2.15v4.65h-7.5v17.2zM182.45-15.05v-4.05l-6.5-2.75v6.8z" fill="#ffffff" fill-rule="nonzero" stroke="none" stroke-width="1" stroke-linecap="butt" stroke-linejoin="miter" stroke-miterlimit="10" stroke-dasharray="" stroke-dashoffset="0" font-family="none" font-weight="none" font-size="none" text-anchor="none" style="mix-blend-mode: normal" data-fill-palette-color="primary" opacity="1"></path><path transform="translate(88.95,41.55)" d="M5 0v-28.75h5.7l10.3 9.7v7.55l-9.7-9.35v20.85zM23.25-17.2l9.9 9.1v-20.65h6.3v28.75h-5.9l-10.3-9.9zM74.65-18.55v5.7l-5.9 3.45h-8v-3.85h7.55v-4.1h-7.55v-4.7h8zM68.1-6.95h6.55v3.5l-5.9 3.45h-8v-5.3h7.35zM44.45-18.55v15.1l5.9 3.45h7.95v-5.3h-7.55v-4.1h7.55v-3.85h-7.55v-4.1h7.55v-4.7h-7.95zM94.55-6.9v-8.8l6.75-6.35 7 1.75-10.85 8.65 10.85 9.8-7 1.85zM92.15-6.9v-8.8l-7.05-6.35-6.85 1.75 10.85 8.65-10.85 9.8 6.85 1.85zM144.1-21.85v21.85h-6.25v-2.25l-7.5 2.25v-5.25h7.5v-16.6zM114.3-21.85v18.4l5.65 3.45h8.1v-5.25h-7.45v-16.6zM182.9-9.7v6.25l-5.7 3.45h-8.05v-5.25h7.7v-4.05h-7.55v-3.9h7.9zM153.1-12.75v-5.65l5.7-3.45h8.1v4.65h-7.5v4h7.5v3.9h-8.1zM153.1-6.95h6.3v1.7h7.5v5.25h-8.1l-5.7-3.45zM182.9-15.05h-6.25v-2.15h-7.5v-4.65h8.05l5.7 3.45z" fill="#ffffff" fill-rule="nonzero" stroke="none" stroke-width="1" stroke-linecap="butt" stroke-linejoin="miter" stroke-miterlimit="10" stroke-dasharray="" stroke-dashoffset="0" font-family="none" font-weight="none" font-size="none" text-anchor="none" style="mix-blend-mode: normal" data-fill-palette-color="accent" opacity="1"></path></g></svg></g></svg></g><g transform="matrix(1,0,0,1,0,204.35546455867745)"><svg viewBox="0 0 232.20979200000002 20.4378568372451" height="20.4378568372451" width="232.20979200000002"><g transform="matrix(1,0,0,1,0,0)"><svg width="232.20979200000002" viewBox="3.85 -35.9 519.75 45.75" height="20.4378568372451" data-palette-color="#fbfbf8"><path d="M14.05 0L14.05 0 3.85 0 3.85-33.7 13.85-33.7Q21.3-33.7 26.08-29.08 30.85-24.45 30.85-17.1L30.85-17.1Q30.85-9.8 26.43-4.9 22 0 14.05 0ZM13.8-30.1L13.8-30.1 7.95-30.1 7.95-3.55 14-3.55Q20.25-3.55 23.45-7.43 26.65-11.3 26.65-17.1L26.65-17.1Q26.65-22.6 23.08-26.35 19.5-30.1 13.8-30.1ZM55.2-5L55.2-1.3Q52.25 0.25 48 0.25L48 0.25Q42.25 0.25 38.72-3.28 35.2-6.8 35.2-12.6L35.2-12.6Q35.2-18.65 38.35-22.15 41.5-25.65 46.45-25.65L46.45-25.65Q51.2-25.65 54-22.6 56.8-19.55 56.8-13.95L56.8-13.95Q56.8-12.35 56.55-11L56.55-11 39.25-11Q39.7-7.25 42.1-5.25 44.5-3.25 48.4-3.25L48.4-3.25Q52.65-3.25 55.2-5L55.2-5ZM46.45-22.2L46.45-22.2Q43.6-22.2 41.6-20.15 39.6-18.1 39.25-14.3L39.25-14.3 52.85-14.3 52.85-15.3Q52.85-18.45 51.15-20.33 49.45-22.2 46.45-22.2ZM83.15-25.35L74.1 0 69.25 0 60.4-25.35 64.5-25.35 68-14.65 71.7-3.1Q72.15-5.25 75.45-14.65L75.45-14.65 79.05-25.35 83.15-25.35ZM106.54-5L106.54-1.3Q103.59 0.25 99.34 0.25L99.34 0.25Q93.59 0.25 90.07-3.28 86.54-6.8 86.54-12.6L86.54-12.6Q86.54-18.65 89.69-22.15 92.84-25.65 97.79-25.65L97.79-25.65Q102.54-25.65 105.34-22.6 108.14-19.55 108.14-13.95L108.14-13.95Q108.14-12.35 107.89-11L107.89-11 90.59-11Q91.04-7.25 93.44-5.25 95.84-3.25 99.74-3.25L99.74-3.25Q103.99-3.25 106.54-5L106.54-5ZM97.79-22.2L97.79-22.2Q94.94-22.2 92.94-20.15 90.94-18.1 90.59-14.3L90.59-14.3 104.19-14.3 104.19-15.3Q104.19-18.45 102.49-20.33 100.79-22.2 97.79-22.2ZM118.29-35.35L118.29 0 114.34 0 114.34-35.35 118.29-35.35ZM148.09-12.6L148.09-12.6Q148.09-6.95 144.89-3.25 141.69 0.45 136.09 0.45L136.09 0.45Q130.64 0.45 127.46-3.23 124.29-6.9 124.29-12.5L124.29-12.5Q124.29-18.15 127.56-21.93 130.84-25.7 136.09-25.7L136.09-25.7Q141.84-25.7 144.96-22 148.09-18.3 148.09-12.6ZM128.39-12.55L128.39-12.55Q128.39-8.6 130.49-5.83 132.59-3.05 136.09-3.05L136.09-3.05Q139.89-3.05 141.94-5.78 143.99-8.5 143.99-12.55L143.99-12.55Q143.99-16.75 142.04-19.48 140.09-22.2 136.09-22.2L136.09-22.2Q132.49-22.2 130.44-19.4 128.39-16.6 128.39-12.55ZM157.79-3.85L157.79 9.85 153.89 9.85 153.89-25.35 157.79-25.35 157.79-21.5Q160.44-25.75 165.64-25.75L165.64-25.75Q170.69-25.75 173.56-22.08 176.44-18.4 176.44-12.9L176.44-12.9Q176.44-7.05 173.41-3.33 170.39 0.4 165.54 0.4L165.54 0.4Q160.54 0.4 157.79-3.85L157.79-3.85ZM157.79-12.65L157.79-12.65Q157.79-7.8 160.04-5.5 162.29-3.2 165.04-3.2L165.04-3.2Q168.24-3.2 170.29-5.73 172.34-8.25 172.34-12.9L172.34-12.9Q172.34-17.05 170.34-19.6 168.34-22.15 165.29-22.15 162.24-22.15 160.01-19.93 157.79-17.7 157.79-12.65ZM216.13-17.4L216.13 0 212.18 0 212.18-16.4Q212.18-22.15 207.33-22.15L207.33-22.15Q204.93-22.15 203.03-19.98 201.13-17.8 201.13-13.85L201.13-13.85 201.13 0 197.18 0 197.18-16.4Q197.18-22.15 192.33-22.15L192.33-22.15Q189.93-22.15 188.03-19.98 186.13-17.8 186.13-13.85L186.13-13.85 186.13 0 182.23 0 182.23-25.35 186.13-25.35 186.13-21.25Q188.23-25.7 193.28-25.7L193.28-25.7Q199.13-25.7 200.68-20.75L200.68-20.75Q201.78-23.15 203.76-24.43 205.73-25.7 208.18-25.7L208.18-25.7Q212.13-25.7 214.13-23.45 216.13-21.2 216.13-17.4L216.13-17.4ZM241.63-5L241.63-1.3Q238.68 0.25 234.43 0.25L234.43 0.25Q228.68 0.25 225.16-3.28 221.63-6.8 221.63-12.6L221.63-12.6Q221.63-18.65 224.78-22.15 227.93-25.65 232.88-25.65L232.88-25.65Q237.63-25.65 240.43-22.6 243.23-19.55 243.23-13.95L243.23-13.95Q243.23-12.35 242.98-11L242.98-11 225.68-11Q226.13-7.25 228.53-5.25 230.93-3.25 234.83-3.25L234.83-3.25Q239.08-3.25 241.63-5L241.63-5ZM232.88-22.2L232.88-22.2Q230.03-22.2 228.03-20.15 226.03-18.1 225.68-14.3L225.68-14.3 239.28-14.3 239.28-15.3Q239.28-18.45 237.58-20.33 235.88-22.2 232.88-22.2ZM269.23-17.45L269.23 0 265.28 0 265.28-16.4Q265.28-19.2 263.85-20.68 262.43-22.15 260.13-22.15L260.13-22.15Q257.28-22.15 255.2-19.95 253.13-17.75 253.13-13.85L253.13-13.85 253.13 0 249.23 0 249.23-25.35 253.13-25.35 253.13-20.95Q255.38-25.7 261.13-25.7L261.13-25.7Q264.83-25.7 267.03-23.45 269.23-21.2 269.23-17.45L269.23-17.45ZM288.93-4.4L288.93-0.65Q287.27 0.25 285.22 0.25L285.22 0.25Q277.72 0.25 277.72-7.4L277.72-7.4 277.72-22.15 273.68-22.15 273.68-25.35 277.72-25.35 277.72-31.65 281.68-31.65 281.68-25.35 288.68-25.35 288.68-22.15 281.68-22.15 281.68-7.3Q281.68-3.25 285.47-3.25L285.47-3.25Q287.43-3.25 288.93-4.4L288.93-4.4ZM313.92-26.1L313.92-26.1Q313.92-24.5 314.84-22.93 315.77-21.35 318.17-18.9L318.17-18.9Q321.52-20.45 323.04-22.08 324.57-23.7 324.57-25.8L324.57-25.8Q324.57-27.95 323.17-29.43 321.77-30.9 319.12-30.9L319.12-30.9Q316.87-30.9 315.39-29.63 313.92-28.35 313.92-26.1ZM331.92-5.95L338.27 0 332.92 0 329.52-3.15Q325.47 0.4 319.07 0.4L319.07 0.4Q313.42 0.4 309.94-2.18 306.47-4.75 306.47-8.8L306.47-8.8Q306.47-14.45 314.37-17.45L314.37-17.45Q312.02-20 310.92-21.98 309.82-23.95 309.82-26.15L309.82-26.15Q309.82-29.9 312.37-32.2 314.92-34.5 319.17-34.5 323.42-34.5 326.02-32.02 328.62-29.55 328.62-25.85L328.62-25.85Q328.62-19.95 320.67-16.4L320.67-16.4 329.12-8.55Q330.27-10.55 330.52-13.4L330.52-13.4 334.32-13.4Q334.02-9.1 331.92-5.95L331.92-5.95ZM318.97-3.25L318.97-3.25Q323.62-3.25 326.77-5.7L326.77-5.7 316.87-14.95Q313.67-13.75 312.12-12.3 310.57-10.85 310.57-8.85L310.57-8.85Q310.57-6.3 312.92-4.78 315.27-3.25 318.97-3.25ZM373.91-8.95L373.91-8.95Q373.91-4.5 370.86-2.08 367.81 0.35 363.01 0.35L363.01 0.35Q357.71 0.35 354.01-1.8L354.01-1.8 354.01-6.15Q357.66-3.4 362.91-3.4L362.91-3.4Q366.06-3.4 367.86-4.8 369.66-6.2 369.66-8.85L369.66-8.85Q369.66-9.95 369.24-10.83 368.81-11.7 367.84-12.43 366.86-13.15 365.99-13.63 365.11-14.1 363.61-14.8L363.61-14.8Q363.31-14.95 362.71-15.2L362.71-15.2Q360.56-16.15 359.44-16.75 358.31-17.35 356.79-18.53 355.26-19.7 354.56-21.25 353.86-22.8 353.86-24.85L353.86-24.85Q353.86-29.15 356.94-31.58 360.01-34 364.66-34L364.66-34Q369.01-34 372.06-32.45L372.06-32.45 372.06-28.2Q369.01-30.2 364.76-30.2L364.76-30.2Q361.71-30.2 359.91-28.78 358.11-27.35 358.11-25.05L358.11-25.05Q358.11-23.85 358.59-22.9 359.06-21.95 360.26-21.13 361.46-20.3 362.31-19.88 363.16-19.45 364.96-18.65L364.96-18.65Q366.66-17.9 367.56-17.48 368.46-17.05 369.89-16.13 371.31-15.2 372.04-14.33 372.76-13.45 373.34-12.03 373.91-10.6 373.91-8.95ZM398.91-5L398.91-1.3Q395.96 0.25 391.71 0.25L391.71 0.25Q385.96 0.25 382.44-3.28 378.91-6.8 378.91-12.6L378.91-12.6Q378.91-18.65 382.06-22.15 385.21-25.65 390.16-25.65L390.16-25.65Q394.91-25.65 397.71-22.6 400.51-19.55 400.51-13.95L400.51-13.95Q400.51-12.35 400.26-11L400.26-11 382.96-11Q383.41-7.25 385.81-5.25 388.21-3.25 392.11-3.25L392.11-3.25Q396.36-3.25 398.91-5L398.91-5ZM390.16-22.2L390.16-22.2Q387.31-22.2 385.31-20.15 383.31-18.1 382.96-14.3L382.96-14.3 396.56-14.3 396.56-15.3Q396.56-18.45 394.86-20.33 393.16-22.2 390.16-22.2ZM423.96-4.65L423.96-0.9Q421.56 0.55 418.06 0.55L418.06 0.55Q412.06 0.55 408.53-3.28 405.01-7.1 405.01-12.6L405.01-12.6Q405.01-18 408.53-21.9 412.06-25.8 418.16-25.8L418.16-25.8Q421.41-25.8 423.96-24.4L423.96-24.4 423.96-20.65Q421.66-22.2 418.56-22.2L418.56-22.2Q414.26-22.2 411.68-19.43 409.11-16.65 409.11-12.55L409.11-12.55Q409.16-8.45 411.61-5.73 414.06-3 418.56-3L418.56-3Q421.46-3 423.96-4.65L423.96-4.65ZM449.76-25.35L449.76 0 445.81 0 445.81-4.4Q443.81 0.3 437.86 0.3L437.86 0.3Q434.11 0.3 431.93-1.93 429.76-4.15 429.76-7.9L429.76-7.9 429.76-25.35 433.71-25.35 433.71-8.9Q433.71-6.15 435.11-4.7 436.51-3.25 438.91-3.25L438.91-3.25Q442.06-3.25 443.93-5.45 445.81-7.65 445.81-11.4L445.81-11.4 445.81-25.35 449.76-25.35ZM460.95-13.85L460.95 0 457 0 457.05-25.35 460.95-25.35 460.95-20.9Q462.95-25.6 467.85-25.6L467.85-25.6Q468.75-25.6 469.25-25.5L469.25-25.5 469.25-21.6Q468.2-21.95 467.1-21.95L467.1-21.95Q464.45-21.95 462.7-19.5 460.95-17.05 460.95-13.85L460.95-13.85ZM477.5-25.35L477.5 0 473.55 0 473.55-25.35 477.5-25.35ZM477.35-35.15Q478.1-34.4 478.1-33.3 478.1-32.2 477.35-31.48 476.6-30.75 475.5-30.75 474.4-30.75 473.68-31.48 472.95-32.2 472.95-33.3 472.95-34.4 473.68-35.15 474.4-35.9 475.5-35.9 476.6-35.9 477.35-35.15ZM497.7-4.4L497.7-0.65Q496.05 0.25 494 0.25L494 0.25Q486.5 0.25 486.5-7.4L486.5-7.4 486.5-22.15 482.45-22.15 482.45-25.35 486.5-25.35 486.5-31.65 490.45-31.65 490.45-25.35 497.45-25.35 497.45-22.15 490.45-22.15 490.45-7.3Q490.45-3.25 494.25-3.25L494.25-3.25Q496.2-3.25 497.7-4.4L497.7-4.4ZM523.6-25.35L514.45-0.65Q512.5 4.5 509.82 6.6 507.15 8.7 503.7 8.7L503.7 8.7Q502.4 8.7 501.6 8.45L501.6 8.45 501.6 4.9Q502.35 5.1 503.3 5.1L503.3 5.1Q508.35 5.1 510.45-0.65L510.45-0.65 500.2-25.35 504.65-25.35 507.95-17 512.4-5.5Q512.8-6.8 516.4-17L516.4-17 519.35-25.35 523.6-25.35Z" opacity="1" transform="matrix(1,0,0,1,0,0)" fill="#ffffff" class="slogan-text-1" data-fill-palette-color="secondary" id="text-1"></path></svg></g></svg></g></svg></g></svg></g><g><svg viewBox="0 0 244.43136 280.27948571111716" height="280.27948571111716" width="244.43136"><g><svg xmlns="http://www.w3.org/2000/svg" xmlns:xlink="http://www.w3.org/1999/xlink" version="1.1" x="0" y="0" viewBox="103.1 76.59999999999998 360.70000000000005 413.59999999999985" style="enable-background:new 0 0 566.9 566.9;" xml:space="preserve" height="280.27948571111716" width="244.43136" class="icon-icon-0" data-fill-palette-color="accent" id="icon-0"><path d="M463.4 340.6L357.2 213.8l-0.3-0.4-28-4.4-4.3-31.9-1.8-23.3 25 34.8 2.9-65.5 0-0.1-6.3-36.6-45.4-9.8-19.2 15.8-33.8 6.5-47.5 2.3-0.6-0.1-25.7-12L159.2 113l-14.7 11.3-3.9 31.3 0.2 1.5 15.1 45.7 21-27.5 1 44 11.5 39.6-20.8 20.8L155 316.4l-1.7 41.4 0.5 44.7-0.5 35.7-4.8 4.3h-24.3l-21.1 10.9 42.9 17.3 27.9-3.3 48.2 15.7 66.4-43.6 72.4 6.4-20.6 17.5 1.9 8.9 17.3 15 14.7 2.9 30.5-19 2-18.4L439 451l12.7-26.4 12.1-81.9L463.4 340.6zM448.3 422.3l-24-11.2-17.9-51 53.2-16.2-25.3 36.5-0.4 0.5L448.3 422.3zM362.7 407.5L362.7 407.5l0.1 33.8-35.3-43.8 29.9-59.4 42.4 20.8-37.9 7.4L362.7 407.5zM195.5 453.5l35.7-67.8 13.5-12.8 7.1 64.2L195.5 453.5zM248.6 440.6l-20.9 19.8-29.2-5.2L248.6 440.6zM178.5 288l45.7 50.9-7 31.3L178.5 288zM287.6 183l-8.2 10.3-14-4.1-15.1 10.7-9.7-22.8 23.3-6.9L287.6 183zM267.2 169.1l25.9-8.6-4.4 20.2L267.2 169.1zM272.1 234l4.1 3.3-6.3-0.8L258 218.3l-8.1 7.3 1.1-23.1 14.9-10.6 13.1 3.9 7.1 13.1v14.3L272.1 234zM286.2 228.5v2.9l-2.1 2.1L286.2 228.5zM283.6 228.3l-3.7 8.7-3.7-3L283.6 228.3zM268.9 236.4l-11.9-1.5-3.7-3.5L268.9 236.4zM251 228l6.5-5.9 6.5 10L251 228zM237.9 175.3l-8.5-16 30.4 9.6L237.9 175.3zM236.7 178.2l2.7-0.8-3.2 12.8-6.6-16.7-21.7 7.2 16.4 19.7 10.3-4.1-3.6 14.4-13.4 10.7-33.7-30 28.2-63.7 13.5 29.9L236.7 178.2zM234.9 193.6l-9.7 3.8L212.3 182l15.9-5.3L234.9 193.6zM233.4 212.2l4.2-16.9 3-12 8 18.9-1.2 25.9 0.6 1.7 8 7.6 23.9 2.9 8.9-7.8v-9.7-14.5l-7.3-13.3 7.8-9.8 6.7 16.9 7.4 16-2.3 17.1-15.8 3.2-13.7 14.5-11.6-0.7-6.2-16.2-25-4.7-9-8L233.4 212.2zM291 182.7l8.5-12.9 14.4 11.9-17.9 12.4L291 182.7zM334.6 235l20.7 100.2L322 336l-6.5-56.2 19.1-44.4L334.6 235zM337 234.7l51.9 42 31.9 50.4-62.9 8L337 234.7zM314.3 276.1l-11.9-34.4 30.5-8.3L314.3 276.1zM225.6 336.6l-0.5-0.5 9.9-28.5-4.8-37.7 16.1 41.7L225.6 336.6zM226.2 341.7l17.9 28.3-13.9 13.1-11.1-9.6L226.2 341.7zM224.8 328.9l-8.9-30.1 16.1 8.6L224.8 328.9zM229.6 261.3l47.7 2.3L248 309 229.6 261.3zM278.7 266l5.8 45-22.6 33.2-12.7-32.3L278.7 266zM281.1 264.6l31.1 15.4-25.5 28.5L281.1 264.6zM281.6 262l18.4-19.9 12.1 34.9L281.6 262zM251.9 238l6.3 16.4 14.3 0.9 13.9-14.8 14.3-2.9-21.9 23.5-49.4-2.4-3.4-1.8L208.3 242l20-8.3L251.9 238zM227.1 265.1l4.9 39.4-16.5-8.8L227.1 265.1zM224 334.8l-27.4-30.5 16.6-6.3L224 334.8zM218.4 376.3l10.2 8.8L198 443.4 218.4 376.3zM247.3 373.3l39.5 34.9-32.6 27.2L247.3 373.3zM245.7 368l-18.6-29.4 20.2-24.4 12.8 32.5-1.2 1.8 0 0L245.7 368zM261.8 348.7l57.2 45.3-70.5-25.9L261.8 348.7zM264.6 347.7l52.3-7.7 7.4 55L264.6 347.7zM319 337.1l-54.8 8.1 22.6-33.1 26.5-29.6 6.5 56 35-0.8-28.2 56L319 337.1zM361.1 337.1l61.6-7.8 35.9 12.3-53.1 15.9-3.9-0.5L361.1 337.1zM355.6 215.8l103.2 123.2L423.7 327l-32.9-52-54.6-44.2-6.5-19L355.6 215.8zM333.5 230.6l-30.6 8.3 24.4-26.4L333.5 230.6zM326.5 209.8l-23 24.8 2.3-17.1-7.7-16.6-1.7-4.2 21.4-14.9-19.1-15.7-6.7 10.2 9.3-42.9 20.6 44.3L326.5 209.8zM315.7 106.7l6.8 4.6-2.2 34.7-0.5 0.5-18.2-16.9-7.7-14L315.7 106.7zM292.8 113.5l-9.7-17.6 29.2 9.5L292.8 113.5zM321.6 170.6L306 137.2l14 13L321.6 170.6zM342.4 88.6l6 34.7-2.6 58.1-23.1-32.2 2.5-39.1-7.7-5.3 6.7-20.1L342.4 88.6zM299.8 79.5l21.9 4.7-6.6 19.5-32-10.5L299.8 79.5zM279.8 95.1l18.1 32.9L249.5 101 279.8 95.1zM299.3 131.7l-5.6 25.9-29.7 9.8-36.3-11.4-14.1-31.3 32.4-22.9L299.3 131.7zM241.7 101.9l-29.1 20.6-0.1-0.2-12.3-18.5L241.7 101.9zM209.7 122.6l-30.3-2.8 18.3-15.3L209.7 122.6zM176 119.4l-12-3.5 27.9-9.8L176 119.4zM173.5 92.6l21.2 9.9-33.4 11.7L173.5 92.6zM160.5 117.5l13.7 4-5.6 8.1L145.4 151 160.5 117.5zM146.8 125.6l11.2-8.6-14 31.1L146.8 125.6zM156.7 197.5l-12.9-39.1 32.2 13.9L156.7 197.5zM144 155.8l24.8-23 7.4 36.9L144 155.8zM170.9 130.6l6-8.5 33.3 3.1-31.6 43.6L170.9 130.6zM206.6 134.4l-23.7 53.5-3.6-15.8L206.6 134.4zM179.5 184.1l1.7 7.6 44.5 40.3-19.7 8.2-25.8-21.6L179.5 184.1zM192.2 259.6l-10.8-36.9 43.7 36.7-48.9 16.1L192.2 259.6zM225.6 261.9l-12.7 33.4-18.2 7-21-23.3L225.6 261.9zM170.7 281.1l1.3-1.3 14.8 31.4-10.8 29.7-18.3-24.5L170.7 281.1zM176.7 348l24.7 62.6-20.8 10.6-12.3-29.7L176.7 348zM166.7 387l-10.6-28.1 18.4-12.6L166.7 387zM157.3 320.2l17.2 23L155.9 356 157.3 320.2zM155.9 365.5l9.9 26.2 0 0 12.7 30.7-22.6 14 0.5-34L155.9 365.5zM155.3 439.7l25.4-15.7 23.9-12.2-27-68.3 10.6-29.1 28.1 59.7L192.2 454l-40.6-10.9L155.3 439.7zM173.7 464.7l-27.3 3.3-37.3-15 15.7-8.1h24l40.5 11.2L173.7 464.7zM221.2 480l-44-14.3 16-8.8 33.3 5.9L221.2 480zM229.2 462.5l15.3-14.6-19.1 26.6L229.2 462.5zM226.9 476.8l26.9-37.6 30.3 0.1L226.9 476.8zM287.1 436.8l-30.4-0.1 30.8-25.7L287.1 436.8zM248.5 371.1l73.3 26.6-32.8 9.2L248.5 371.1zM289.9 409.2l32-9-32.4 34.6L289.9 409.2zM291 437.1l34.9-37.3L361 443 291 437.1zM373.9 487.5l-13.1-2.6-16.2-14-1.1-5.1 33.4 12.7 0.3 0.1 16.1-3.2L373.9 487.5zM399.3 471.6l-21.9 4.3-33.2-12.6 19.7-16.7 35.7 24.9L399.3 471.6zM365.2 410.6l37.1 38.9-37-5.9L365.2 410.6zM402.5 469.7l-0.6 0.4-32.7-23.2 35.2 5.5L402.5 469.7zM365.2 406.9l-0.8-38.6 37.4-7.3 2.6 87.1L365.2 406.9zM406.8 445.8l-2.5-84.3 17.6 50.4L406.8 445.8zM437.4 448.6l-29.7 1.4 16.2-36.3 24.9 11.6L437.4 448.6zM450 419.5l-13.2-38.2 23.9-34.5L450 419.5z" fill="#ffffff" data-fill-palette-color="accent"></path></svg></g></svg></g></svg></g><defs></defs></svg><rect width="395.52" height="167.93270996597454" fill="none" stroke="none" visibility="hidden"></rect></g></svg></g></svg>
